<?xml version="1.0" encoding="UTF-8" standalone="no"?>
<!DOCTYPE svg  PUBLIC '-//W3C//DTD SVG 1.1//EN'  'http://www.w3.org/Graphics/SVG/1.1/DTD/svg11.dtd'>
<svg xmlns="http://www.w3.org/2000/svg">
<defs>
<font id="fontopoNEUTRAL-Regular" vert-adv-y="1000" horiz-adv-x="635">
<font-face underline-position="-50" font-weight="400" descent="-200" panose-1="0 0 0 0 0 0 0 0 0 0" units-per-em="1000" unicode-range="U+000D-007A" bbox="-182 -203 728 769" x-height="590" underline-thickness="50" font-family="fontopoNEUTRAL" ascent="800" cap-height="709"/>
<missing-glyph horiz-adv-x="1000"/>
<glyph glyph-name=".notdef" horiz-adv-x="1000"/>
<glyph vert-adv-y="0" glyph-name=".null" horiz-adv-x="0"/>
<glyph vert-adv-y="0" glyph-name="nonmarkingreturn" horiz-adv-x="1000" unicode=""/>
<glyph vert-adv-y="0" glyph-name="space" horiz-adv-x="250" unicode=" "/>
<glyph glyph-name="exclam" horiz-adv-x="236" unicode="!" d="M98 97v-96h-98v96h98zM102 710l-4 -558l-97 1l-1 558z"/>
<glyph glyph-name="quotedbl" horiz-adv-x="320" unicode='&quot;' d="M80 635l-16 -100h-31v100h-33v80h80v-80zM189 635l-16 -100h-30v100h-34v80h80v-80z"/>
<glyph glyph-name="numbersign" horiz-adv-x="268" unicode="#"/>
<glyph glyph-name="dollar" horiz-adv-x="268" unicode="$"/>
<glyph glyph-name="percent" horiz-adv-x="268" unicode="%"/>
<glyph glyph-name="ampersand" horiz-adv-x="268" unicode="&amp;"/>
<glyph glyph-name="quotesingle" horiz-adv-x="210" unicode="&apos;" d="M80 635l-16 -100h-31v100h-33v80h80v-80z"/>
<glyph glyph-name="parenleft" horiz-adv-x="278" unicode="(" d="M155 70l-36 -75q-53 27 -86 79t-33 116v330q0 64 33 116t86 79l36 -75q-26 -16 -41.5 -43t-15.5 -60v-364q0 -32 15.5 -59.5t41.5 -43.5z"/>
<glyph glyph-name="parenright" horiz-adv-x="288" unicode=")" d="M155 190q0 -64 -32.5 -116t-86.5 -79l-36 75q26 16 42 43.5t16 59.5v364q0 33 -16 60t-42 43l36 75q54 -27 86.5 -79t32.5 -116v-330z"/>
<glyph glyph-name="asterisk" horiz-adv-x="469" unicode="*" d="M224 258l111 -88l-52 -61l-75 70v-105h-80v107l-78 -70l-50 62l112 86l-110 89l51 61l75 -70v105h80v-107l78 70l51 -62z"/>
<glyph glyph-name="plus" horiz-adv-x="515" unicode="+" d="M369 226h-144v-145h-80v145h-145v80h145v145h80v-145h144v-80z"/>
<glyph glyph-name="comma" horiz-adv-x="210" unicode="," d="M80 0l-16 -100h-31v100h-33v80h80v-80z"/>
<glyph glyph-name="hyphen" horiz-adv-x="518" unicode="-" d="M369 226h-369v80h369v-80z"/>
<glyph glyph-name="period" horiz-adv-x="210" unicode="." d="M80 0h-80v80h80v-80z"/>
<glyph glyph-name="slash" horiz-adv-x="370" unicode="/" d="M254 709l-152 -709h-102l152 709h102z"/>
<glyph glyph-name="zero" d="M442 196v317q0 25 -9.5 47t-26 38.5t-39 26t-47.5 9.5h-5q-25 0 -47.5 -9.5t-39 -26t-26 -38.5t-9.5 -47v-317q0 -25 9.5 -47t26 -38.5t39 -26t47.5 -9.5h5q25 0 47.5 9.5t39 26t26 38.5t9.5 47zM539 213q0 -45 -17 -85t-47 -70t-70 -47t-85 -17h-5q-45 0 -85 17t-70 47 t-47 70t-17 85v283q0 45 17 85t47 70t70 47t85 17h5q45 0 85 -17t70 -47t47 -70t17 -85v-283z" unicode="0"/>
<glyph glyph-name="one" d="M407 0h-102v629h-77v80h179v-709z" unicode="1"/>
<glyph glyph-name="two" d="M531 506q0 -16 -2.5 -35t-8.5 -39t-17 -41t-28 -40l-243 -271h297v-80h-424v80l284 315q24 27 34 56.5t10 60.5q0 25 -8 47.5t-23 39t-36 26t-46 9.5h-6q-25 0 -45.5 -9.5t-35 -26t-22.5 -38.5t-9 -47l-1 -20h-97v4q0 45 16 84.5t44.5 69.5t67 47t83.5 17h5q45 0 84 -16 t67 -43.5t44 -66t16 -83.5z" unicode="2"/>
<glyph glyph-name="three" d="M540 203q0 -46 -17.5 -84.5t-48 -66t-71 -43t-86.5 -15.5t-86.5 15.5t-70.5 43t-47.5 66t-17.5 84.5h98q0 -26 10 -49.5t26.5 -41t39 -28t48.5 -10.5q30 0 53.5 10.5t39.5 28t24 41t8 49.5q0 24 -9 46t-24 39t-35.5 28t-44.5 13q-2 -1 -8 -1h-47v80h44q22 0 41 9t33 24.5 t22.5 35.5t8.5 42t-6 42.5t-19 37t-33 26.5t-48 10q-22 0 -41.5 -10t-34 -26.5t-23 -37t-8.5 -42.5h-97q0 42 16 78t43.5 62t65 41t79.5 15t79 -15t65 -41t44 -62t16 -78q0 -48 -19.5 -85t-52.5 -63q42 -27 66.5 -70t24.5 -98z" unicode="3"/>
<glyph glyph-name="four" d="M361 254v295l-164 -295h164zM539 174h-80v-174h-98v174h-265v80l265 455h98v-455h80v-80z" unicode="4"/>
<glyph glyph-name="five" d="M109 332l19 377h383v-80h-291l-13 -182q24 10 50.5 15.5t54.5 5.5q53 0 95.5 -16.5t72.5 -46.5t46.5 -72t16.5 -93t-15 -96t-45 -78t-74.5 -52.5t-103.5 -19.5q-32 0 -63.5 8t-59 23t-51 35.5t-39.5 46.5l82 48q20 -35 55 -58t75 -23q37 0 64 13.5t44 36t25 52.5t8 64 q0 31 -9.5 58t-26.5 47t-41.5 31.5t-55.5 11.5q-34 0 -55 -8.5t-34 -19.5q-15 -12 -23 -28h-91z" unicode="5"/>
<glyph glyph-name="six" d="M447 224q0 27 -9 54t-25.5 48.5t-40.5 34.5t-54 13t-54.5 -13t-41 -34.5t-25.5 -48.5t-9 -54t9 -54t25.5 -48.5t41 -34.5t54.5 -13q31 0 55 13t40.5 34.5t25 48.5t8.5 54zM544 224q0 -48 -17.5 -89.5t-48 -73t-72 -49.5t-88.5 -18q-48 0 -89 18t-72 49.5t-48.5 73 t-17.5 89.5q0 29 6 57t20 52l216 376h105l-147 -257q7 1 13.5 1.5t13.5 0.5q47 0 88.5 -18t72 -49.5t48 -73t17.5 -89.5z" unicode="6"/>
<glyph glyph-name="seven" d="M525 629l-242 -629h-98l242 629h-317v80h415v-80z" unicode="7"/>
<glyph glyph-name="eight" d="M447 203q0 25 -9.5 48t-26 40.5t-39.5 29t-49 15.5h-11q-26 -4 -49 -15.5t-39.5 -29t-26 -40.5t-9.5 -48q0 -26 8 -49.5t24 -41t39.5 -28t53.5 -10.5h9q30 0 53.5 10.5t39.5 28t24 41t8 49.5zM428 518q0 22 -6.5 43t-19.5 37.5t-33 26.5t-48 10h-7q-28 0 -48.5 -10 t-33.5 -26.5t-19 -37.5t-6 -43q0 -44 29 -73.5t78 -36.5h7q50 9 78.5 37.5t28.5 72.5zM544 203q0 -46 -17.5 -84.5t-47.5 -66t-70.5 -43t-86.5 -15.5h-9q-46 0 -86.5 15.5t-70.5 43t-47.5 66t-17.5 84.5q0 57 25.5 100.5t68.5 69.5q-35 24 -55 60.5t-20 84.5q0 42 16 78.5 t43.5 62.5t65 41t79.5 15h7q42 0 79.5 -15t65 -41t43.5 -62.5t16 -78.5q0 -48 -20 -84.5t-55 -60.5q43 -26 68.5 -69.5t25.5 -100.5z" unicode="8"/>
<glyph glyph-name="nine" d="M447 485q0 27 -9 54t-26 48.5t-41 35t-54 13.5q-31 0 -55 -13.5t-40.5 -35t-25 -48.5t-8.5 -54t9 -54t25.5 -48.5t40.5 -34.5t54 -13t54 13t41 34.5t26 48.5t9 54zM544 485q0 -29 -6 -57t-20 -52l-216 -376h-105l147 257q-7 -1 -13.5 -1.5t-13.5 -0.5q-47 0 -88.5 18 t-72 49.5t-48 73t-17.5 89.5t17.5 89.5t48 73t72 49.5t88.5 18q48 0 89 -18t72 -49.5t48.5 -73t17.5 -89.5z" unicode="9"/>
<glyph glyph-name="colon" horiz-adv-x="201" unicode=":" d="M80 0h-80v80h80v-80zM80 432h-80v80h80v-80z"/>
<glyph glyph-name="semicolon" horiz-adv-x="202" unicode=";" d="M80 0l-16 -100h-31v100h-33v80h80v-80zM80 432h-80v80h80v-80z"/>
<glyph glyph-name="less" horiz-adv-x="401" unicode="&lt;" d="M0 371l172 338h106l-176 -337l180 -372h-104z"/>
<glyph glyph-name="equal" horiz-adv-x="535" unicode="=" d="M0 332v80h369v-80h-369zM0 125v80h369v-80h-369z"/>
<glyph glyph-name="greater" horiz-adv-x="401" unicode="&gt;" d="M104 0h-104l180 372l-177 337h106l173 -338z"/>
<glyph glyph-name="question" horiz-adv-x="555" unicode="?" d="M273 95l-1 -96h-97v96h98zM443 506q0 -23 -3.5 -43t-14.5 -40l-149 -272h-102l152 277q20 35 20 84q0 25 -9.5 47t-26 38.5t-38.5 26.5t-47 10h-6q-25 0 -47 -9.5t-38.5 -26t-26 -38.5t-9.5 -47v-14q0 -14 3.5 -28t8.5 -25l-91 -35q-8 18 -13.5 38t-5.5 43v5 q0 45 17.5 84.5t47.5 69.5t70 47t85 17h5q45 0 85 -16t69.5 -44t46.5 -66t17 -83z"/>
<glyph glyph-name="at" horiz-adv-x="621" unicode="@" d="M405 322v121h-88q-39 0 -62.5 -25.5t-24.5 -65.5v-60q-1 -40 23.5 -64t63.5 -27h1h8q34 0 56.5 25.5t22.5 65.5v30zM503 323v-15q-1 -48 -17 -84.5t-41.5 -60.5t-54.5 -34t-57 -10q-8 0 -15 1h-1q-36 3 -69.5 14.5t-59.5 34t-41 56t-15 77.5v6l1 28q1 48 16.5 83.5t41 59 t58 34.5t68.5 11h88q-5 47 -39 78.5t-82 31.5h-65q-25 0 -47 -9.5t-38.5 -26t-26 -38.5t-9.5 -47v-317q0 -25 9.5 -47t26 -38.5t38.5 -26t47 -9.5h6q22 0 44 8l36 -74q-38 -15 -80 -15h-6q-45 0 -85 17t-70 47t-47 70t-17 85v283q0 45 17 85t47 70t70 47t85 17h65 q45 0 85 -17t70 -47t47 -70t17 -85v-173z"/>
<glyph glyph-name="A" horiz-adv-x="691" unicode="A" d="M394 261l-107 334l-106 -334h213zM574 0h-97l-58 181h-264l-57 -181h-98l238 709h99z"/>
<glyph glyph-name="B" horiz-adv-x="572" unicode="B" d="M352 213q0 22 -8.5 43.5t-22.5 38.5t-33.5 28t-41.5 13h-148v-234l104 -20q8 -2 17.5 -2h17.5q24 1 44.5 13t36.5 31t25 42t9 47zM325 523q0 20 -7.5 39t-21 34t-31.5 24t-38 9h-1l-128 -4v-210h140q18 3 34 13t27.5 25t18.5 33t7 37zM449 213q0 -44 -16.5 -82.5 t-45.5 -67.5t-67.5 -46t-82.5 -17h-18t-17 2l-108 19l-4 -21h-90v702l226 7h1h5q37 0 72 -13t61 -38.5t41.5 -60t15.5 -74.5q0 -44 -17.5 -80t-48.5 -62q42 -26 67.5 -69.5t25.5 -98.5z"/>
<glyph glyph-name="C" horiz-adv-x="548" unicode="C" d="M443 222v-22q0 -45 -17 -85t-47 -70t-69.5 -47t-84.5 -17h-6q-45 0 -85 17t-70 47t-47 70t-17 85v309q0 45 17 85t47 70t70 47t85 17h6q45 0 84.5 -17t69.5 -47t47 -70t17 -85v-15h-97v32q0 25 -9.5 47t-26 38.5t-38.5 26t-47 9.5h-6q-25 0 -47 -9.5t-38.5 -26t-26 -38.5 t-9.5 -47v-343q0 -25 9.5 -47t26 -38.5t38.5 -26t47 -9.5h6q25 0 47 9.5t38.5 26t26 38.5t9.5 47v39h97z"/>
<glyph glyph-name="D" horiz-adv-x="569" unicode="D" d="M346 213v282q0 24 -9 47.5t-25 42t-36.5 30t-44.5 12.5q-12 2 -29 0l-104 -5v-520l104 -20q8 -2 15.5 -1.5t13.5 0.5q24 1 44.5 12.5t36.5 30.5t25 42t9 47zM443 213q0 -44 -16.5 -82.5t-45.5 -67.5t-67.5 -46t-82.5 -17h-13t-16 2l-108 19l-4 -21h-90v702l202 6 q11 1 17.5 1h11.5q44 0 82.5 -17t67.5 -46t45.5 -68t16.5 -83v-282z"/>
<glyph glyph-name="E" horiz-adv-x="514" unicode="E" d="M418 0h-418v709l418 -1v-79h-320v-219h291v-79h-291v-251h320v-80z"/>
<glyph glyph-name="F" horiz-adv-x="476" unicode="F" d="M418 629h-320v-219h291v-79h-291v-331h-98v709l418 -1v-79z"/>
<glyph glyph-name="G" horiz-adv-x="574" unicode="G" d="M346 509v17q0 25 -9.5 47t-26 38.5t-38.5 26t-47 9.5h-6q-25 0 -47 -9.5t-38.5 -26t-26 -38.5t-9.5 -47v-330q0 -25 9.5 -47t26 -38.5t38.5 -26t47 -9.5h6q25 0 47 9.5t38.5 26t26 38.5t9.5 47v110h-155v80h252v-386h-79l-6 39q-28 -21 -61.5 -33t-71.5 -12h-6 q-45 0 -85 17t-70 47t-47 70t-17 85v296q0 45 17 85t47 70t70 47t85 17h6q45 0 84.5 -17t69.5 -47t47 -70t17 -85h-97z"/>
<glyph glyph-name="H" horiz-adv-x="579" unicode="H" d="M443 0h-97v326h-248v-326h-98v709h98v-303h248v303h97v-709z"/>
<glyph glyph-name="I" horiz-adv-x="237" unicode="I" d="M102 0h-102v709h102v-709z"/>
<glyph glyph-name="J" horiz-adv-x="574" unicode="J" d="M98 302v-119q0 -25 9.5 -47t26 -38.5t38.5 -26t47 -9.5h6q25 0 47 9.5t38.5 26t26 38.5t9.5 47v526h97v-509q0 -45 -17 -85t-47 -70t-69.5 -47t-84.5 -17h-6q-45 0 -85 17t-70 47t-47 70t-17 85v102h98z"/>
<glyph glyph-name="K" horiz-adv-x="496" unicode="K" d="M458 0h-108l-215 303l-37 -47v-256h-98v709h98v-327l252 327h105l-266 -337z"/>
<glyph glyph-name="L" horiz-adv-x="480" unicode="L" d="M397 0h-397v709h98v-629h299v-80z"/>
<glyph glyph-name="M" horiz-adv-x="687" unicode="M" d="M552 0h-98v355l9 167l-44 -168l-96 -287h-94l-97 288l-42 167l8 -167v-355h-98v709h115l115 -353l46 -170l46 169l115 354h115v-709z"/>
<glyph glyph-name="N" horiz-adv-x="579" unicode="N" d="M443 0h-3h-94h-19l-153 355l-85 209l9 -210v-354h-98v709h6h92h18l154 -353l84 -210l-8 208v355h97v-709z"/>
<glyph glyph-name="O" horiz-adv-x="576" unicode="O" d="M348 184v342q0 50 -36 86t-86 36h-6q-51 0 -87 -36q-35 -35 -35 -86v-342q0 -52 35 -87q36 -36 87 -36h6q50 0 86 36t36 87zM445 201q0 -92 -64 -156q-66 -64 -155 -64h-6q-90 0 -156 64q-64 64 -64 156v307q0 92 64 156t156 64h6q91 0 155 -64t64 -156v-307z"/>
<glyph glyph-name="P" horiz-adv-x="546" unicode="P" d="M352 523q0 20 -7.5 39t-21 33.5t-31.5 24t-38 9.5l-156 -3v-245l104 -9q9 -1 18 -1t17 1q24 2 45 14t36.5 30.5t24.5 41.5t9 47v18zM449 523v-18q0 -44 -16.5 -82t-45.5 -66.5t-67.5 -46t-82.5 -18.5h-18h-17l-104 7v-299h-98v706l254 3q40 0 76 -14.5t62.5 -39 t41.5 -58.5t15 -74z"/>
<glyph glyph-name="Q" horiz-adv-x="574" unicode="Q" d="M388 -22l-52 46q-25 -14 -53 -22t-58 -8h-6q-45 0 -85 17t-70 47t-47 70t-17 85v296q0 45 17 85t47 70t70 47t85 17h6q45 0 84.5 -17t69.5 -47t47 -70t17 -85v-296q0 -37 -11.5 -70.5t-31.5 -60.5l44 -41zM225 75q25 0 46 9l-59 55l59 63l63 -59q12 24 12 53v330 q0 25 -9.5 47t-26 38.5t-38.5 26t-47 9.5h-6q-25 0 -47 -9.5t-38.5 -26t-26 -38.5t-9.5 -47v-330q0 -25 9.5 -47t26 -38.5t38.5 -26t47 -9.5h6z"/>
<glyph glyph-name="R" horiz-adv-x="581" unicode="R" d="M345 522v1q0 20 -8 39t-21 33.5t-30.5 24t-37.5 9.5h-1l-149 -5v-227l98 -8q10 -1 18 -1t16 1q25 2 46 14t37 30.5t24 40.5t8 43v5zM462 0h-107l-135 308h-12t-12 1l-98 7v-316h-98v702l247 7h1q40 0 75 -14.5t61.5 -39t42 -58.5t16.5 -74v-1v-6q0 -31 -9.5 -59.5 t-27.5 -54t-43 -45t-54 -31.5z"/>
<glyph glyph-name="S" horiz-adv-x="569" unicode="S" d="M363 183q-3 24 -12 44t-27.5 37.5t-48.5 33.5t-75 33q-38 14 -68.5 31.5t-53 39.5t-36.5 50t-18 64q-1 11 -1 22q0 34 14 69t44 63t69.5 42.5t81.5 14.5h6l6 -1q41 -2 76 -17.5t61 -42t42.5 -61.5t20.5 -75l-96 -10v6q0 22 -7 43t-21 38t-34 27.5t-45 11.5h-6h-5 q-22 0 -43.5 -8t-37.5 -24t-23.5 -35.5t-7.5 -39.5v-9q1 -16 8 -31.5t21 -30.5t37.5 -29t59.5 -28q60 -24 98 -48t61 -50.5t33.5 -55t15.5 -61.5q2 -15 2 -28q0 -33 -14 -67.5t-46.5 -63t-75 -42.5t-84.5 -14h-11h-6q-41 2 -78.5 18t-67 42.5t-48.5 61.5t-23 75l96 10 q-1 -25 9 -47.5t27 -39.5t40 -27.5t48 -11.5h6h6q26 0 50.5 8.5t44 25t28.5 36.5t9 39q0 6 -1 12z"/>
<glyph glyph-name="T" horiz-adv-x="499" unicode="T" d="M456 629h-171v-629h-102v629h-171v80h444v-80z"/>
<glyph glyph-name="U" horiz-adv-x="574" unicode="U" d="M98 709v-526q0 -25 9.5 -47t26 -38.5t38.5 -26t47 -9.5h6q25 0 47 9.5t38.5 26t26 38.5t9.5 47v526h97v-509q0 -45 -17 -85t-47 -70t-69.5 -47t-84.5 -17h-6q-45 0 -85 17t-70 47t-47 70t-17 85v509h98z"/>
<glyph glyph-name="V" horiz-adv-x="607" unicode="V" d="M497 709l-199 -709h-99l-199 709h112l136 -548l137 548h112z"/>
<glyph glyph-name="W" horiz-adv-x="845" unicode="W" d="M728 709l-72 -354l-73 -355h-102l-82 354l-35 213l-34 -215l-83 -352h-102l-145 709h106l57 -355l35 -189l41 189l76 326h98l76 -326l37 -189l38 190l59 354h105z"/>
<glyph glyph-name="X" horiz-adv-x="586" unicode="X" d="M468 0h-104l-130 285l-130 -285h-104l183 372l-180 337h106l125 -253l125 253h106l-177 -337z"/>
<glyph glyph-name="Y" horiz-adv-x="548" unicode="Y" d="M477 709l-190 -415v-294h-98v294l-189 415h111l127 -316l128 316h111z"/>
<glyph glyph-name="Z" horiz-adv-x="524" unicode="Z" d="M415 0h-415v80l310 549h-310v80h415v-80l-309 -549h309v-80z"/>
<glyph glyph-name="bracketleft" horiz-adv-x="268" unicode="["/>
<glyph glyph-name="backslash" horiz-adv-x="268" unicode="\"/>
<glyph glyph-name="bracketright" horiz-adv-x="268" unicode="]"/>
<glyph glyph-name="asciicircum" horiz-adv-x="268" unicode="^"/>
<glyph glyph-name="underscore" horiz-adv-x="502" unicode="_" d="M0 -4v80h369v-80h-369z"/>
<glyph glyph-name="grave" horiz-adv-x="211" unicode="`" d="M80 535h-80v80l16 100h31v-100h33v-80z"/>
<glyph glyph-name="a" horiz-adv-x="521" unicode="a" d="M207 598q43 0 77 -12t57 -38t35.5 -67.5t12.5 -101.5v-379h-90l-5 21l-55 -14q-16 -5 -33 -6t-27 -1q-80 0 -128.5 40t-50.5 126v35q0 38 14 69.5t38 55t57.5 39t72.5 22.5q36 7 59.5 7t50.5 -5q0 39 -6 64t-17 39t-26.5 19.5t-35.5 5.5h-8q-35 0 -59.5 -14t-47.5 -45 l-58 51q28 38 65 63.5t100 25.5h8zM290 102l-1 208q-16 2 -28.5 3.5t-19.5 2t-10 0.5q-9 0 -19.5 -1.5t-24.5 -5.5q-47 -13 -68 -42t-21 -66v-36q2 -47 23.5 -65.5t57.5 -18.5q9 0 23 1t28 4z"/>
<glyph glyph-name="b" horiz-adv-x="527" unicode="b" d="M181 592q44 0 82.5 -17t67.5 -46t45.5 -68t16.5 -83v-165q0 -44 -15 -82.5t-42 -67.5t-64 -46t-81 -17q-8 0 -19 2t-20 4l-58 15l-4 -21h-90v709h98v-127l54 7q16 3 29 3zM296 378q0 24 -9 47t-25 41.5t-36.5 30.5t-44.5 13h-14t-16 -2l-53 -9v-397l54 -16q10 -3 19 -4 t20 -1q24 0 43 11.5t33 30.5t21.5 42.5t7.5 47.5v165z"/>
<glyph glyph-name="c" horiz-adv-x="498" unicode="c" d="M394 147q-14 -66 -60 -109.5t-128 -43.5h-6q-45 0 -82 17t-63 47t-40.5 70t-14.5 85v166q0 45 14.5 85t40.5 70t63 47t82 17h6q88 0 133.5 -44.5t56.5 -114.5h-97q-7 36 -30.5 57t-62.5 21h-6q-25 0 -44 -9.5t-32 -26t-19.5 -38.5t-6.5 -47v-200q0 -25 6.5 -47 t19.5 -38.5t32 -26t44 -9.5h6q38 0 61.5 19.5t29.5 52.5h97z"/>
<glyph glyph-name="d" horiz-adv-x="528" unicode="d" d="M0 378q0 44 16.5 83t45.5 68t68 46t83 17q5 0 12.5 -0.5t15.5 -1.5l55 -8v127h97v-709h-90l-4 21l-58 -15q-9 -2 -19.5 -4t-19.5 -2q-44 0 -81 17t-64 46t-42 67.5t-15 82.5v165zM98 213q0 -24 7.5 -47.5t21 -42.5t32.5 -30.5t43 -11.5q11 0 20 1t19 4l55 16v397l-54 9 q-14 2 -23 2h-6q-24 -1 -45 -12.5t-36.5 -30t-24.5 -42t-9 -47.5v-165z"/>
<glyph glyph-name="e" horiz-adv-x="510" unicode="e" d="M98 246v-50q0 -25 6.5 -47t18.5 -38.5t28.5 -26t37.5 -9.5h12q35 0 59.5 17.5t39.5 46.5l71 -49q-29 -46 -70 -71t-100 -25h-12q-40 0 -74.5 17t-60 47t-40 70t-14.5 85v167q0 45 13.5 85t38.5 69.5t61 47t81 17.5h6q45 0 81 -17.5t61 -47t38.5 -69.5t13.5 -85v-134h-296 zM194 518q-25 0 -43 -9.5t-30 -26t-17.5 -39t-5.5 -47.5v-71h199v71q0 25 -6 47.5t-18 39t-30 26t-43 9.5h-6z"/>
<glyph glyph-name="f" horiz-adv-x="425" unicode="f" d="M309 511h-122l3 -511h-100v511h-90v80h89q3 42 21.5 75.5t47.5 56t67.5 34.5t81.5 12v-80q-25 0 -47 -6t-38 -18q-16 -13 -26 -31l113 -43v-80z"/>
<glyph glyph-name="g" horiz-adv-x="527" unicode="g" d="M394 16q0 -45 -15.5 -85t-43 -70t-65.5 -47t-83 -17h-2q-58 0 -100.5 25.5t-71.5 70.5l70 50q16 -29 41.5 -47t60.5 -18h2q25 0 45 9.5t34.5 26t22 38.5t7.5 47v51l-76 -18q-8 -2 -15.5 -2h-12.5q-44 0 -79.5 16.5t-60.5 45.5t-38.5 67.5t-13.5 82.5v137q0 44 13.5 83 t38.5 68t60.5 46t79.5 17h17t22 -2l70 -11l6 13h87v-577zM296 131v364l-65 15q-9 2 -21 2h-18q-24 -1 -41.5 -13t-29.5 -30.5t-17.5 -42t-5.5 -47.5v-137q0 -24 5.5 -47t17.5 -41.5t29.5 -30.5t41.5 -13h13t15 2z"/>
<glyph glyph-name="h" horiz-adv-x="523" unicode="h" d="M206 594q43 0 77.5 -16.5t58.5 -45t37 -67t13 -81.5v-384h-96v384q0 24 -5 47t-16 41t-28 30t-41 13h-13t-15 -2l-82 -18v-495h-96v710h96v-135l82 17q8 2 15.5 2h12.5z"/>
<glyph glyph-name="i" horiz-adv-x="232" unicode="i" d="M98 615h-98v96h98v-96zM98 0h-98v559h98v-559z"/>
<glyph glyph-name="j" horiz-adv-x="328" unicode="j" d="M98 -1v558h98v-541q0 -45 -15 -85t-42 -70t-65 -47t-83 -17h-3q-58 0 -100 25t-70 71l70 50q16 -29 40 -47t60 -18h3q25 0 45 10t34 26t20 38q8 22 8 47zM196 612h-98v96h98v-96z"/>
<glyph glyph-name="k" horiz-adv-x="467" unicode="k" d="M149 302l-51 -58v-245h-98v710h98v-343l202 228h110l-197 -230l202 -365h-106z"/>
<glyph glyph-name="l" horiz-adv-x="233" unicode="l" d="M98 0h-98v731h98v-731z"/>
<glyph glyph-name="m" horiz-adv-x="778" unicode="m" d="M468 594q48 0 82 -16.5t55.5 -45.5t31.5 -69t10 -88v-375h-97v379q0 25 -3 49t-12 43t-24.5 30.5t-40.5 11.5h-6q-32 -5 -54 -22.5t-37 -44.5v-446h-98v381q0 25 -3.5 49t-12.5 42.5t-25.5 29.5t-43.5 11q-31 0 -50 -9t-42 -31v-473h-98v593h87l6 -34q26 17 45.5 25.5 t51.5 8.5q51 0 85 -20t51 -54q18 19 33.5 32.5t31 22t33 13.5t38.5 7h6z"/>
<glyph glyph-name="n" horiz-adv-x="535" unicode="n" d="M203 592q44 0 79.5 -16.5t60.5 -45.5t38.5 -67.5t13.5 -82.5v-380h-98v380q0 24 -6 47t-17.5 41.5t-29 30.5t-41.5 13q-6 0 -13.5 -0.5t-15.5 -2.5l-76 -17v-492h-98v592h87l6 -20l81 17q8 2 16 2.5t13 0.5z"/>
<glyph glyph-name="o" horiz-adv-x="519" unicode="o" d="M200 599q45 0 81 -17t61 -47t38.5 -70t13.5 -85v-167q0 -45 -13.5 -85t-38.5 -70t-61 -47t-81 -17h-6q-45 0 -81 17t-61 47t-38.5 70t-13.5 85v167q0 45 13.5 85t38.5 70t61 47t81 17h6zM98 196q0 -25 5.5 -47t17.5 -38.5t30 -26t43 -9.5h6q25 0 43.5 9.5t30.5 26 t17.5 38.5t5.5 47v201q0 25 -5.5 47t-17.5 38.5t-30.5 26t-43.5 9.5h-6q-25 0 -43 -9.5t-30 -26t-17.5 -38.5t-5.5 -47v-201z"/>
<glyph glyph-name="p" horiz-adv-x="517" unicode="p" d="M394 244q0 -44 -12.5 -83t-36 -68t-57.5 -46t-78 -17h-12.5t-16.5 1l-83 9v-237h-98v790h90l4 -21l87 18q8 2 16 2.5t13 0.5q44 0 78 -17t57.5 -46t36 -67.5t12.5 -82.5v-136zM296 380q0 24 -4.5 47t-15 41.5t-26.5 30.5t-40 13h-14t-15 -2l-83 -19v-368l82 -11h16h14 q24 1 40 12.5t26.5 30t15 42t4.5 47.5v136z"/>
<glyph glyph-name="q" horiz-adv-x="527" unicode="q" d="M184 30q-44 0 -78 17t-57.5 46t-36 68t-12.5 83v135q0 44 12.5 82.5t36 67.5t57.5 45.5t78 16.5h13t16 -2l87 -18l4 21h90v-789h-98v237l-83 -9q-9 -1 -16.5 -1h-12.5zM98 244q0 -24 4.5 -47.5t15 -42t26.5 -30t40 -12.5h14h16l82 11v367l-83 19q-8 2 -15 2h-14 q-24 -1 -40 -13t-26.5 -30.5t-15 -41.5t-4.5 -47v-135z"/>
<glyph glyph-name="r" horiz-adv-x="300" unicode="r" d="M90 546q20 23 55.5 35.5t67.5 12.5v-81q-24 -1 -45 -12.5t-36.5 -30t-24.5 -42t-9 -47.5v-381h-98v594h81z"/>
<glyph glyph-name="s" horiz-adv-x="529" unicode="s" d="M302 434q-6 16 -14 31t-19 27t-24.5 19.5t-29.5 8.5h-6h-10q-42 0 -64.5 -23.5t-22.5 -56.5q0 -6 1 -13q4 -27 31.5 -45.5t65.5 -28.5q31 -8 64 -19.5t61 -30t47.5 -46t24.5 -68.5q2 -15 2 -29q0 -35 -13 -68.5t-43.5 -59t-64.5 -33.5t-62 -8q-19 0 -39 3l-11 2 q-64 9 -111.5 48t-64.5 114l85 31q10 -47 34.5 -75.5t69.5 -31.5l11 -1q8 -1 16 -1q50 0 74 23t24 59q0 6 -1 13q-5 38 -34 59t-76 33q-32 9 -62.5 20t-55 27.5t-41 41t-20.5 60.5q-1 10 -1 20q0 31 11 62t37.5 55t61.5 35t73 11q9 0 19 -1l6 -1q33 -2 57.5 -13.5t43 -29.5 t32.5 -41.5t25 -50.5z"/>
<glyph glyph-name="t" horiz-adv-x="407" unicode="t" d="M289 513h-104l5 -513h-100v513h-90v80h90l5 131h90v-131h104v-80z"/>
<glyph glyph-name="u" horiz-adv-x="527" unicode="u" d="M296 128v465h97v-593h-87l-5 39q-20 -21 -44 -30t-70 -9q-44 0 -78.5 16.5t-58.5 45.5t-37 67.5t-13 82.5v381h98v-381q0 -25 5 -49t16 -42.5t29.5 -29.5t45.5 -11q41 0 62 10.5t40 37.5z"/>
<glyph glyph-name="v" horiz-adv-x="560" unicode="v" d="M93 591l120 -472l120 472h96l-167 -591h-99l-163 591h93z"/>
<glyph glyph-name="w" horiz-adv-x="735" unicode="w" d="M614 593l-114 -593h-97l-71 250l-25 148l-24 -147l-72 -251h-97l-114 593h98l48 -339l20 -107l27 104l65 296h98l64 -296l28 -104l20 105l48 341h98z"/>
<glyph glyph-name="x" horiz-adv-x="555" unicode="x" d="M318 0l-106 228l-105 -228h-107l159 307l-158 283h104l107 -214l107 214h105l-158 -283l159 -307h-107z"/>
<glyph glyph-name="y" horiz-adv-x="531" unicode="y" d="M417 590l-218 -787h-99l80 268l-180 519h102l119 -366l97 366h99z"/>
<glyph glyph-name="z" horiz-adv-x="486" unicode="z" d="M107 80h263v-80h-370v80l266 433h-266v80h370v-80z"/>
</font>
</defs>
</svg>
